<mxfile host="Electron" modified="2023-07-13T12:46:14.509Z" agent="Mozilla/5.0 (Macintosh; Intel Mac OS X 10_15_7) AppleWebKit/537.36 (KHTML, like Gecko) draw.io/21.2.8 Chrome/112.0.5615.165 Electron/24.2.0 Safari/537.36" etag="CGWYdzScu34wtAF-P8_Y" version="21.2.8" type="device">
  <diagram name="Page-1" id="WScbiieCJrIoPyfDi6MG">
    <mxGraphModel dx="1063" dy="823" grid="1" gridSize="10" guides="1" tooltips="1" connect="1" arrows="1" fold="1" page="1" pageScale="1" pageWidth="827" pageHeight="1169" math="0" shadow="0">
      <root>
        <mxCell id="0" />
        <mxCell id="1" parent="0" />
        <mxCell id="ZPqtmvvV7tbtc_1M3ivK-27" value="" style="rounded=0;whiteSpace=wrap;html=1;" parent="1" vertex="1">
          <mxGeometry x="80" y="280" width="760" height="280" as="geometry" />
        </mxCell>
        <mxCell id="ZPqtmvvV7tbtc_1M3ivK-1" value="ACE&lt;br&gt;Integration Server" style="rounded=1;whiteSpace=wrap;html=1;verticalAlign=top;" parent="1" vertex="1">
          <mxGeometry x="400" y="320" width="120" height="200" as="geometry" />
        </mxCell>
        <mxCell id="ZPqtmvvV7tbtc_1M3ivK-7" value="MQ&lt;br&gt;Queue Manager" style="rounded=1;whiteSpace=wrap;html=1;verticalAlign=top;" parent="1" vertex="1">
          <mxGeometry x="680" y="320" width="120" height="200" as="geometry" />
        </mxCell>
        <mxCell id="ZPqtmvvV7tbtc_1M3ivK-4" value="subscribe to SF&lt;br&gt;platform events" style="edgeStyle=orthogonalEdgeStyle;rounded=0;orthogonalLoop=1;jettySize=auto;html=1;exitX=0.5;exitY=0;exitDx=0;exitDy=0;" parent="1" source="ZPqtmvvV7tbtc_1M3ivK-23" edge="1">
          <mxGeometry x="0.25" relative="1" as="geometry">
            <mxPoint x="240" y="370" as="targetPoint" />
            <Array as="points">
              <mxPoint x="460" y="370" />
            </Array>
            <mxPoint as="offset" />
          </mxGeometry>
        </mxCell>
        <mxCell id="ZPqtmvvV7tbtc_1M3ivK-9" value="MQ Put" style="edgeStyle=orthogonalEdgeStyle;rounded=0;orthogonalLoop=1;jettySize=auto;html=1;entryX=0.5;entryY=0;entryDx=0;entryDy=0;exitX=1;exitY=0.5;exitDx=0;exitDy=0;" parent="1" source="ZPqtmvvV7tbtc_1M3ivK-23" target="ZPqtmvvV7tbtc_1M3ivK-13" edge="1">
          <mxGeometry x="-0.3615" relative="1" as="geometry">
            <Array as="points">
              <mxPoint x="740" y="420" />
            </Array>
            <mxPoint as="offset" />
          </mxGeometry>
        </mxCell>
        <mxCell id="ZPqtmvvV7tbtc_1M3ivK-6" value="receive SF&lt;br&gt;platform events" style="edgeStyle=orthogonalEdgeStyle;rounded=0;orthogonalLoop=1;jettySize=auto;html=1;entryX=0.5;entryY=1;entryDx=0;entryDy=0;exitX=1;exitY=0.75;exitDx=0;exitDy=0;" parent="1" source="ZPqtmvvV7tbtc_1M3ivK-2" target="ZPqtmvvV7tbtc_1M3ivK-23" edge="1">
          <mxGeometry x="-0.25" relative="1" as="geometry">
            <Array as="points">
              <mxPoint x="460" y="470" />
            </Array>
            <mxPoint as="offset" />
          </mxGeometry>
        </mxCell>
        <mxCell id="ZPqtmvvV7tbtc_1M3ivK-2" value="" style="rounded=1;whiteSpace=wrap;html=1;" parent="1" vertex="1">
          <mxGeometry x="120" y="320" width="120" height="200" as="geometry" />
        </mxCell>
        <mxCell id="ZPqtmvvV7tbtc_1M3ivK-3" value="" style="shape=image;verticalLabelPosition=bottom;labelBackgroundColor=default;verticalAlign=top;aspect=fixed;imageAspect=0;image=https://c1.sfdcstatic.com/content/dam/sfdc-docs/www/logos/logo-salesforce.svg;" parent="1" vertex="1">
          <mxGeometry x="134" y="388" width="92" height="64" as="geometry" />
        </mxCell>
        <mxCell id="ZPqtmvvV7tbtc_1M3ivK-22" value="" style="group" parent="1" vertex="1" connectable="0">
          <mxGeometry x="720" y="450" width="60" height="65" as="geometry" />
        </mxCell>
        <mxCell id="ZPqtmvvV7tbtc_1M3ivK-13" value="" style="shape=partialRectangle;whiteSpace=wrap;html=1;bottom=1;right=1;left=1;top=0;fillColor=none;routingCenterX=-0.5;" parent="ZPqtmvvV7tbtc_1M3ivK-22" vertex="1">
          <mxGeometry width="40" height="40" as="geometry" />
        </mxCell>
        <mxCell id="ZPqtmvvV7tbtc_1M3ivK-14" value="" style="line;strokeWidth=2;html=1;" parent="ZPqtmvvV7tbtc_1M3ivK-22" vertex="1">
          <mxGeometry x="5" y="30" width="30" height="10" as="geometry" />
        </mxCell>
        <mxCell id="ZPqtmvvV7tbtc_1M3ivK-15" value="" style="line;strokeWidth=2;html=1;" parent="ZPqtmvvV7tbtc_1M3ivK-22" vertex="1">
          <mxGeometry x="5" y="25" width="30" height="10" as="geometry" />
        </mxCell>
        <mxCell id="ZPqtmvvV7tbtc_1M3ivK-16" value="" style="line;strokeWidth=2;html=1;" parent="ZPqtmvvV7tbtc_1M3ivK-22" vertex="1">
          <mxGeometry x="5" y="30" width="30" height="10" as="geometry" />
        </mxCell>
        <mxCell id="ZPqtmvvV7tbtc_1M3ivK-17" value="" style="line;strokeWidth=2;html=1;" parent="ZPqtmvvV7tbtc_1M3ivK-22" vertex="1">
          <mxGeometry x="5" y="20" width="30" height="10" as="geometry" />
        </mxCell>
        <mxCell id="ZPqtmvvV7tbtc_1M3ivK-18" value="" style="line;strokeWidth=2;html=1;" parent="ZPqtmvvV7tbtc_1M3ivK-22" vertex="1">
          <mxGeometry x="5" y="15" width="30" height="10" as="geometry" />
        </mxCell>
        <mxCell id="ZPqtmvvV7tbtc_1M3ivK-20" value="" style="line;strokeWidth=2;html=1;" parent="ZPqtmvvV7tbtc_1M3ivK-22" vertex="1">
          <mxGeometry x="5" y="10" width="30" height="10" as="geometry" />
        </mxCell>
        <mxCell id="ZPqtmvvV7tbtc_1M3ivK-21" value="" style="line;strokeWidth=2;html=1;" parent="ZPqtmvvV7tbtc_1M3ivK-22" vertex="1">
          <mxGeometry x="5" y="5" width="30" height="10" as="geometry" />
        </mxCell>
        <mxCell id="ZPqtmvvV7tbtc_1M3ivK-24" value="SF Queue" style="text;html=1;align=center;verticalAlign=middle;resizable=0;points=[];autosize=1;strokeColor=none;fillColor=none;" parent="ZPqtmvvV7tbtc_1M3ivK-22" vertex="1">
          <mxGeometry x="-20" y="35" width="80" height="30" as="geometry" />
        </mxCell>
        <mxCell id="ZPqtmvvV7tbtc_1M3ivK-23" value="Salesforce Bridge Event Driven&lt;br style=&quot;font-size: 11px;&quot;&gt;Flow" style="shape=hexagon;perimeter=hexagonPerimeter2;whiteSpace=wrap;html=1;fixedSize=1;size=10;fillColor=#dae8fc;strokeColor=#6c8ebf;fontSize=11;" parent="1" vertex="1">
          <mxGeometry x="410" y="390" width="100" height="60" as="geometry" />
        </mxCell>
        <mxCell id="ZPqtmvvV7tbtc_1M3ivK-25" value="" style="html=1;verticalLabelPosition=bottom;align=center;labelBackgroundColor=#ffffff;verticalAlign=top;strokeWidth=2;strokeColor=#0080F0;shadow=0;dashed=0;shape=mxgraph.ios7.icons.mail;" parent="1" vertex="1">
          <mxGeometry x="310" y="430" width="30" height="16.5" as="geometry" />
        </mxCell>
        <mxCell id="ZPqtmvvV7tbtc_1M3ivK-26" value="" style="html=1;verticalLabelPosition=bottom;align=center;labelBackgroundColor=#ffffff;verticalAlign=top;strokeWidth=2;strokeColor=#0080F0;shadow=0;dashed=0;shape=mxgraph.ios7.icons.mail;" parent="1" vertex="1">
          <mxGeometry x="580" y="390" width="30" height="16.5" as="geometry" />
        </mxCell>
      </root>
    </mxGraphModel>
  </diagram>
</mxfile>
